<?xml version="1.0" encoding="UTF-8"?>
<svg id="Calque_1" xmlns="http://www.w3.org/2000/svg" version="1.1" viewBox="0 0 750 750">
  <!-- Generator: Adobe Illustrator 30.1.0, SVG Export Plug-In . SVG Version: 2.1.1 Build 136)  -->
  <defs>
    <style>
      .st0 {
        fill: #a1e632;
      }

      .st1 {
        fill: #020100;
      }
    </style>
  </defs>
  <polygon class="st1" points="624.75 509.29 125.14 509.29 125.03 473.26 286.19 473.11 137.99 409.32 152.21 376.16 294.55 436.78 185.38 326.99 210.86 301.54 324.5 414.76 265.26 265.5 298.8 251.99 356.68 396.51 356.85 241.08 392.99 241.1 393.13 402.38 456.73 254.07 489.91 268.25 429.38 410.81 538.91 301.56 564.38 326.92 451.15 440.92 600.28 381.44 613.67 415.15 469.19 473.13 624.83 473.25 624.75 509.29"/>
  <path class="st0" d="M0,750V0h750v750H0ZM624.75,509.29l.08-36.04-155.64-.13,144.48-57.97-13.39-33.71-149.14,59.47,113.24-113.99-25.47-25.37-109.54,109.25,60.53-142.55-33.18-14.18-63.6,148.31-.13-161.27-36.14-.02-.18,155.42-57.88-144.52-33.53,13.51,59.23,149.26-113.64-113.22-25.48,25.44,109.17,109.79-142.34-60.61-14.22,33.16,148.2,63.79-161.16.15.11,36.04h499.6Z"/>
</svg>